<?xml version="1.0" standalone="no"?>
<!DOCTYPE svg PUBLIC "-//W3C//DTD SVG 20010904//EN"
 "http://www.w3.org/TR/2001/REC-SVG-20010904/DTD/svg10.dtd">
<svg version="1.0" xmlns="http://www.w3.org/2000/svg"
 width="450.000000pt" height="450.000000pt" viewBox="0 0 450.000000 450.000000"
 preserveAspectRatio="xMidYMid meet">
<metadata>
Created by potrace 1.11, written by Peter Selinger 2001-2013
</metadata>
<g transform="translate(0.000000,450.000000) scale(0.100000,-0.100000)"
fill="#000000" stroke="none">
<path d="M2444 4143 c-15 -21 -31 -40 -34 -43 -13 -11 -283 -374 -376 -505
-249 -352 -411 -614 -539 -870 -17 -33 -33 -61 -37 -63 -5 -2 -8 -8 -8 -13 0
-6 -9 -30 -20 -55 -44 -96 -98 -245 -115 -320 -28 -116 -35 -195 -20 -210 11
-11 15 -9 24 18 6 17 11 41 11 54 0 29 49 226 60 239 4 6 11 29 15 52 8 52 22
63 34 30 6 -14 20 -33 33 -43 23 -17 23 -18 8 -63 -8 -25 -18 -50 -22 -56 -13
-23 -51 -193 -52 -238 -1 -48 -1 -48 27 -43 32 7 35 -4 6 -23 -18 -10 -19 -15
-8 -22 12 -8 12 -10 0 -18 -12 -8 -12 -13 2 -35 22 -33 21 -39 -2 -26 -28 15
-33 13 -21 -10 9 -16 8 -18 -5 -14 -17 7 -20 -20 -16 -146 2 -41 0 -72 -3 -69
-4 3 -19 42 -35 85 -18 47 -35 78 -42 76 -7 -2 -16 3 -21 10 -16 21 -1 -139
20 -227 28 -115 49 -170 94 -257 93 -175 242 -324 403 -403 94 -46 195 -80
195 -65 0 5 -13 11 -29 15 -20 4 -28 11 -25 20 4 8 -7 20 -25 30 -35 18 -41
30 -11 22 12 -3 18 -1 14 5 -3 5 -16 7 -28 4 -16 -4 -33 3 -57 24 l-34 30 29
-6 c21 -5 27 -4 22 5 -8 13 133 16 150 4 5 -5 -1 2 -14 15 -30 29 -23 38 19
23 25 -9 34 -8 40 1 10 16 -8 28 -43 28 -15 0 -30 5 -33 10 -8 13 74 2 93 -13
8 -6 12 -6 12 2 0 9 20 11 70 7 l70 -5 14 32 14 32 7 -31 c5 -24 12 -32 29
-31 11 0 53 -1 93 -3 63 -2 71 -5 70 -21 -1 -11 -7 -19 -15 -19 -7 0 -10 4 -7
10 4 6 -1 7 -11 3 -15 -6 -15 -7 0 -15 11 -6 28 -6 48 1 41 15 42 14 18 -11
-11 -12 -19 -23 -17 -24 1 -1 40 4 87 10 47 7 87 9 88 4 2 -4 8 -6 12 -3 5 3
7 12 3 20 -6 18 27 21 45 3 6 -6 15 -8 19 -4 4 4 1 11 -7 16 -12 8 -11 10 5
10 26 0 31 -37 7 -45 -9 -3 -30 -18 -47 -33 -16 -15 -48 -35 -70 -44 -23 -9
-39 -23 -39 -31 1 -10 -5 -13 -19 -9 -13 3 -18 1 -13 -6 4 -7 -9 -16 -36 -23
-34 -10 -38 -14 -20 -17 12 -2 53 6 90 18 176 58 351 177 452 310 19 25 43 54
53 65 27 30 116 215 133 276 49 179 61 391 30 534 -36 169 -80 271 -200 462
-148 237 -326 571 -376 703 -7 19 -23 58 -35 85 -51 114 -124 369 -145 505
-12 78 -12 258 -1 318 5 23 5 42 1 42 -4 0 -20 -17 -36 -37z m-14 -435 c0 -26
51 -244 70 -304 31 -94 95 -264 120 -319 58 -124 80 -170 89 -185 5 -8 24 -46
43 -85 18 -38 35 -72 38 -75 7 -7 34 -63 64 -133 21 -48 23 -62 14 -82 -18
-40 -59 -33 -103 18 -36 42 -37 42 -30 12 29 -140 36 -210 32 -320 -5 -180
-49 -288 -162 -401 -116 -117 -265 -176 -450 -178 -124 -1 -210 17 -297 62
-117 60 -203 151 -262 276 -37 79 -58 186 -36 186 6 0 10 -8 10 -17 0 -14 2
-15 13 -4 10 11 10 14 0 18 -7 3 -13 13 -13 23 0 10 -4 20 -10 22 -11 4 -1
118 11 118 5 0 9 -17 9 -37 0 -21 4 -44 9 -51 5 -8 6 8 3 37 l-5 51 86 0 c80
0 85 1 80 20 -5 18 -14 20 -73 20 -45 0 -70 -4 -74 -12 -3 -7 -4 1 -3 17 1 19
-2 29 -10 28 -10 -2 -10 3 -1 23 7 15 14 21 16 15 2 -7 33 -11 79 -11 57 0 74
-3 70 -13 -4 -10 11 -11 74 -3 74 8 79 10 79 32 0 21 -5 24 -35 24 -19 0 -35
5 -35 10 0 6 33 10 80 10 47 0 80 4 80 10 0 6 16 10 35 10 47 0 45 20 -2 22
l-38 1 38 4 c20 2 38 8 38 14 1 5 2 15 3 22 1 16 40 20 108 9 45 -7 55 -6 51
5 -3 7 -2 29 1 48 l7 35 182 0 c100 -1 190 2 199 5 32 13 32 52 -1 105 -13 21
-96 281 -115 360 -39 163 -59 283 -76 445 -5 50 -12 100 -16 113 -4 13 -2 22
5 22 6 0 11 -10 11 -22z m-478 -330 c-15 -19 -49 -82 -99 -183 -25 -49 -55
-110 -68 -135 -13 -25 -44 -99 -69 -165 -26 -66 -51 -128 -56 -137 -6 -10 -10
-22 -10 -28 0 -21 -56 -128 -94 -178 -53 -72 -71 -67 -71 19 0 62 4 74 69 200
38 74 86 161 107 194 21 33 52 83 68 112 27 46 127 190 141 203 3 3 23 31 44
63 21 32 40 56 43 53 3 -3 1 -11 -5 -18z m638 -554 c0 -8 -4 -12 -10 -9 -5 3
-10 10 -10 16 0 5 5 9 10 9 6 0 10 -7 10 -16z m-36 -36 c-9 -53 -11 -55 -41
-54 -26 2 -28 6 -31 44 l-3 42 40 0 c40 0 40 0 35 -32z m-964 -258 c0 -5 -5
-10 -11 -10 -5 0 -7 5 -4 10 3 6 8 10 11 10 2 0 4 -4 4 -10z m330 -1622 c0 -5
-9 -4 -20 2 -11 6 -20 12 -20 14 0 2 9 2 20 -1 11 -3 20 -9 20 -15z"/>
<path d="M2646 2688 c-3 -13 -6 -31 -6 -42 0 -14 3 -16 13 -7 8 6 16 9 19 6 2
-3 5 1 5 9 0 8 -6 12 -14 9 -7 -3 -13 -1 -13 5 0 6 6 12 13 15 9 3 9 8 1 16
-9 9 -13 7 -18 -11z"/>
<path d="M2108 2553 c12 -2 30 -2 40 0 9 3 -1 5 -23 4 -22 0 -30 -2 -17 -4z"/>
<path d="M2470 890 c-18 -12 -2 -12 25 0 13 6 15 9 5 9 -8 0 -22 -4 -30 -9z"/>
</g>
</svg>
